<svg width="2157" height="1200" xmlns="http://www.w3.org/2000/svg" xmlns:xlink="http://www.w3.org/1999/xlink" xml:space="preserve" overflow="hidden"><g transform="translate(-1220 -579)"><path d="M1307.5 1287.5 1474.46 1531.07" stroke="#000000" stroke-width="20.625" stroke-miterlimit="8" stroke-opacity="0.501961" fill="none" fill-rule="evenodd"/><path d="M1235.5 1514.5 1402.46 1758.07" stroke="#000000" stroke-width="20.625" stroke-miterlimit="8" stroke-opacity="0.501961" fill="none" fill-rule="evenodd"/><path d="M1380.5 1059.5 1547.46 1303.07" stroke="#000000" stroke-width="20.625" stroke-miterlimit="8" stroke-opacity="0.501961" fill="none" fill-rule="evenodd"/><path d="M1453.5 831.5 1620.46 1075.07" stroke="#000000" stroke-width="20.625" stroke-miterlimit="8" stroke-opacity="0.501961" fill="none" fill-rule="evenodd"/><path d="M1525.5 603.5 1692.46 847.071" stroke="#000000" stroke-width="20.625" stroke-miterlimit="8" stroke-opacity="0.501961" fill="none" fill-rule="evenodd"/><path d="M1744.5 587.5 1765.9 618.726" stroke="#000000" stroke-width="20.625" stroke-miterlimit="8" stroke-opacity="0.501961" fill="none" fill-rule="evenodd"/><path d="M1562.5 1235.5 1927.47 1767.93" stroke="#000000" stroke-width="20.625" stroke-miterlimit="8" stroke-opacity="0.501961" fill="none" fill-rule="evenodd"/><path d="M1488.5 1461.5 1698.54 1767.92" stroke="#000000" stroke-width="20.625" stroke-miterlimit="8" stroke-opacity="0.501961" fill="none" fill-rule="evenodd"/><path d="M1414.5 1687.5 1469.62 1767.9" stroke="#000000" stroke-width="20.625" stroke-miterlimit="8" stroke-opacity="0.501961" fill="none" fill-rule="evenodd"/><path d="M2262.5 585.5 2411.85 803.371" stroke="#000000" stroke-width="20.625" stroke-miterlimit="8" stroke-opacity="0.501961" fill="none" fill-rule="evenodd"/><path d="M1636.5 1009.5 2115.31 1708" stroke="#000000" stroke-width="20.625" stroke-miterlimit="8" stroke-opacity="0.501961" fill="none" fill-rule="evenodd"/><path d="M1710.5 783.5 2189.31 1482" stroke="#000000" stroke-width="20.625" stroke-miterlimit="8" stroke-opacity="0.501961" fill="none" fill-rule="evenodd"/><path d="M1805.5 587.5 2263.66 1255.87" stroke="#000000" stroke-width="20.625" stroke-miterlimit="8" stroke-opacity="0.501961" fill="none" fill-rule="evenodd"/><path d="M2034.5 587.5 2337.73 1029.85" stroke="#000000" stroke-width="20.625" stroke-miterlimit="8" stroke-opacity="0.501961" fill="none" fill-rule="evenodd"/><path d="M2286.5 1190.5 2582.07 1621.69" stroke="#000000" stroke-width="20.625" stroke-miterlimit="8" stroke-opacity="0.501961" fill="none" fill-rule="evenodd"/><path d="M2212.5 1416.5 2453.34 1767.84" stroke="#000000" stroke-width="20.625" stroke-miterlimit="8" stroke-opacity="0.501961" fill="none" fill-rule="evenodd"/><path d="M2137.5 1642.5 2223.73 1768.29" stroke="#000000" stroke-width="20.625" stroke-miterlimit="8" stroke-opacity="0.501961" fill="none" fill-rule="evenodd"/><path d="M2360.5 965.5 2656.07 1396.69" stroke="#000000" stroke-width="20.625" stroke-miterlimit="8" stroke-opacity="0.501961" fill="none" fill-rule="evenodd"/><path d="M2434.5 739.5 2730.07 1170.69" stroke="#000000" stroke-width="20.625" stroke-miterlimit="8" stroke-opacity="0.501961" fill="none" fill-rule="evenodd"/><path d="M2558.5 587.5 2803.9 945.491" stroke="#000000" stroke-width="20.625" stroke-miterlimit="8" stroke-opacity="0.501961" fill="none" fill-rule="evenodd"/><path d="M2787.5 587.5 2878.29 719.942" stroke="#000000" stroke-width="20.625" stroke-miterlimit="8" stroke-opacity="0.501961" fill="none" fill-rule="evenodd"/><path d="M2610.5 1540.5 2766.4 1767.93" stroke="#000000" stroke-width="20.625" stroke-miterlimit="8" stroke-opacity="0.501961" fill="none" fill-rule="evenodd"/><path d="M2683.5 1312.5 2878.56 1597.05" stroke="#000000" stroke-width="20.625" stroke-miterlimit="8" stroke-opacity="0.501961" fill="none" fill-rule="evenodd"/><path d="M2756.5 1085.5 2951.56 1370.05" stroke="#000000" stroke-width="20.625" stroke-miterlimit="8" stroke-opacity="0.501961" fill="none" fill-rule="evenodd"/><path d="M2829.5 857.5 3024.56 1142.05" stroke="#000000" stroke-width="20.625" stroke-miterlimit="8" stroke-opacity="0.501961" fill="none" fill-rule="evenodd"/><path d="M2902.5 630.5 3097.56 915.053" stroke="#000000" stroke-width="20.625" stroke-miterlimit="8" stroke-opacity="0.501961" fill="none" fill-rule="evenodd"/><path d="M3102.5 587.5 3170.83 687.187" stroke="#000000" stroke-width="20.625" stroke-miterlimit="8" stroke-opacity="0.501961" fill="none" fill-rule="evenodd"/><path d="M3049.5 1047.5 3294.62 1405.09" stroke="#000000" stroke-width="20.625" stroke-miterlimit="8" stroke-opacity="0.501961" fill="none" fill-rule="evenodd"/><path d="M3118.5 828.5 3363.62 1186.09" stroke="#000000" stroke-width="20.625" stroke-miterlimit="8" stroke-opacity="0.501961" fill="none" fill-rule="evenodd"/><path d="M3187.5 609.5 3366.01 869.911" stroke="#000000" stroke-width="20.625" stroke-miterlimit="8" stroke-opacity="0.501961" fill="none" fill-rule="evenodd"/><path d="M2979.5 1267.5 3224.62 1625.09" stroke="#000000" stroke-width="20.625" stroke-miterlimit="8" stroke-opacity="0.501961" fill="none" fill-rule="evenodd"/><path d="M2910.5 1486.5 3101.99 1765.85" stroke="#000000" stroke-width="20.625" stroke-miterlimit="8" stroke-opacity="0.501961" fill="none" fill-rule="evenodd"/><path d="M2841.5 1706.5 2882.73 1766.65" stroke="#000000" stroke-width="20.625" stroke-miterlimit="8" stroke-opacity="0.501961" fill="none" fill-rule="evenodd"/><path d="M0 0 375.342 1173.33" stroke="#000000" stroke-width="6.875" stroke-miterlimit="8" stroke-dasharray="6.875 6.875" fill="none" fill-rule="evenodd" transform="matrix(-1 0 0 1 1771.84 589.5)"/><path d="M0 0 375.342 1173.33" stroke="#000000" stroke-width="6.875" stroke-miterlimit="8" stroke-dasharray="6.875 6.875" fill="none" fill-rule="evenodd" transform="matrix(-1 0 0 1 2476.84 589.5)"/><path d="M0 0 375.342 1173.33" stroke="#000000" stroke-width="6.875" stroke-miterlimit="8" stroke-dasharray="6.875 6.875" fill="none" fill-rule="evenodd" transform="matrix(-1 0 0 1 2915.84 589.5)"/><path d="M0 0 375.342 1173.33" stroke="#000000" stroke-width="6.875" stroke-miterlimit="8" stroke-dasharray="6.875 6.875" fill="none" fill-rule="evenodd" transform="matrix(-1 0 0 1 3196.84 589.5)"/><rect x="1223.5" y="589.5" width="2144" height="1178" stroke="#000000" stroke-width="6.875" stroke-miterlimit="8" fill="none"/></g></svg>