<svg width="817" height="1299" xmlns="http://www.w3.org/2000/svg" xmlns:xlink="http://www.w3.org/1999/xlink" xml:space="preserve" overflow="hidden"><defs><clipPath id="clip0"><rect x="2728" y="536" width="817" height="1299"/></clipPath></defs><g clip-path="url(#clip0)" transform="translate(-2728 -536)"><path d="M0 224C86.6098 165.073 229.956 76.7197 288.592 38.7526 347.228 0.785583 352.727 0.11436 384.219 0.00863534 415.712-0.0970893 420.961 0.150768 477.546 38.1178 534.131 76.0848 700.359 182.011 770 224L0 224Z" fill="#C9C08A" fill-rule="evenodd" transform="matrix(1 0 0 -1 2754 760)"/><path d="M2754 1085C2840.61 1026.34 2983.96 938.377 3042.59 900.58 3101.23 862.782 3106.73 862.114 3138.22 862.009 3169.71 861.903 3174.96 862.15 3231.55 899.948 3288.13 937.745 3454.36 1043.2 3524 1085L2754 1085Z" fill="#C9C08A" fill-rule="evenodd"/><path d="M2736 568C2827.02 623.115 2963.5 714.335 3022.14 751.649 3080.79 788.963 3081.82 792.462 3081.99 812.503 3082.15 832.543 3081.77 835.884 3023.12 871.893 2964.48 907.901 2800.86 1013.68 2736 1058L2736 568Z" fill="#89B0FF" fill-rule="evenodd"/><path d="M0 346C55.1153 254.979 146.336 118.504 183.65 59.859 220.963 1.21344 224.462 0.176645 244.503 0.0133385 264.544-0.149968 267.884 0.232883 303.893 58.8784 339.901 117.524 445.683 281.141 490 346L0 346Z" fill="#89B0FF" fill-rule="evenodd" transform="matrix(1.83697e-16 1 1 -1.83697e-16 3199 568)"/><path d="M2758.36 607.607 2888.35 690.992 2884.64 696.779 2754.64 613.393ZM2890.06 679.837 2905.79 706.259 2875.21 702.985Z"/><path d="M1.85597-2.89341 131.852 80.4923 128.14 86.2791-1.85597 2.89341ZM133.562 69.3375 149.286 95.7588 118.715 92.4847Z" transform="matrix(-1 0 0 1 2905.79 919.5)"/><path d="M3086.12 781.023 3092.84 774.548 3099.62 768.232 3106.46 762.271 3113.4 756.864 3120.45 752.21 3127.66 748.524 3135 746.074 3138.86 745.359 3142.7 745.064 3146.54 745.199 3150.45 745.752 3157.93 747.89 3165.39 751.264 3172.76 755.611 3180.11 760.742 3184.01 763.95 3179.64 769.261 3175.84 766.138 3176.06 766.3 3168.93 761.322 3169.16 761.465 3162.06 757.28 3162.39 757.451 3155.33 754.258 3155.8 754.431 3148.79 752.427 3149.25 752.526 3145.76 752.032 3146.12 752.064 3142.65 751.942 3143.03 751.934 3139.57 752.2 3139.93 752.153 3136.48 752.791 3136.95 752.671 3130.09 754.963 3130.56 754.764 3123.75 758.246 3124.07 758.054 3117.3 762.527 3117.52 762.368 3110.77 767.635 3110.91 767.517 3104.18 773.378 3104.27 773.301 3097.55 779.558 3097.59 779.52 3090.88 785.977ZM3187.04 753.083 3199.5 781.192 3169.54 774.293Z" fill="#FF0000"/><path d="M3117 812.5C3117 799.521 3127.52 789 3140.5 789 3153.48 789 3164 799.521 3164 812.5 3164 825.479 3153.48 836 3140.5 836 3127.52 836 3117 825.479 3117 812.5Z" fill="#FF0000" fill-rule="evenodd"/><path d="M2765.37 799.794C2765.37 799.724 2765.37 799.022 2764.43 799.022 2762.77 799.022 2757.5 799.583 2755.63 799.724 2755.05 799.794 2754.25 799.864 2754.25 801.126 2754.25 801.968 2754.9 801.968 2755.99 801.968 2759.45 801.968 2759.6 802.459 2759.6 803.16 2759.6 803.651 2758.73 806.948 2758.23 808.841L2753.82 826.025C2753.53 827.077 2753.03 829.041 2753.03 829.181 2753.03 829.953 2753.75 830.023 2754.18 830.023L2755.19 830.023C2760.25 829.181 2768.11 826.446 2775.55 819.713 2785.08 811.086 2787.03 801.547 2787.03 800.916 2787.03 799.724 2786.16 799.022 2784.93 799.022 2784.36 799.022 2782.7 799.303 2782.12 801.337 2777.5 817.258 2766.53 825.113 2758.3 827.708L2765.37 799.794Z" fill-rule="evenodd"/><path d="M2858.58 806.929C2859.66 806.929 2861.03 806.929 2861.03 805.476 2861.03 804.023 2859.66 804.023 2858.65 804.023L2815.41 804.023C2814.4 804.023 2813.03 804.023 2813.03 805.476 2813.03 806.929 2814.4 806.929 2815.48 806.929L2858.58 806.929ZM2858.65 821.023C2859.66 821.023 2861.03 821.023 2861.03 819.57 2861.03 818.117 2859.66 818.117 2858.58 818.117L2815.48 818.117C2814.4 818.117 2813.03 818.117 2813.03 819.57 2813.03 821.023 2814.4 821.023 2815.41 821.023L2858.65 821.023Z" fill-rule="evenodd"/><path d="M2906.32 784.857C2906.32 783.164 2906.32 783.023 2904.72 783.023 2900.4 787.539 2894.26 787.539 2892.03 787.539L2892.03 789.727C2893.43 789.727 2897.54 789.727 2901.16 787.892L2901.16 824.448C2901.16 826.988 2900.95 827.835 2894.68 827.835L2892.45 827.835 2892.45 830.023C2894.89 829.811 2900.95 829.811 2903.74 829.811 2906.53 829.811 2912.59 829.811 2915.03 830.023L2915.03 827.835 2912.8 827.835C2906.53 827.835 2906.32 827.059 2906.32 824.448L2906.32 784.857Z" fill-rule="evenodd"/><path d="M2952.68 779.72C2953.04 778.797 2953.04 778.514 2953.04 778.442 2953.04 777.661 2952.39 777.023 2951.6 777.023 2951.09 777.023 2950.59 777.235 2950.37 777.661L2925.4 845.325C2925.04 846.248 2925.04 846.532 2925.04 846.603 2925.04 847.384 2925.68 848.023 2926.48 848.023 2927.41 848.023 2927.63 847.526 2928.06 846.319L2952.68 779.72Z" fill-rule="evenodd"/><path d="M2963.29 826.077C2963.07 827.137 2962.64 828.762 2962.64 829.115 2962.64 830.386 2963.65 831.022 2964.73 831.022 2965.59 831.022 2966.89 830.457 2967.39 829.044 2967.47 828.903 2968.33 825.583 2968.76 823.817L2970.35 817.459C2970.78 815.906 2971.21 814.351 2971.57 812.726 2971.86 811.526 2972.44 809.477 2972.51 809.194 2973.59 807.005 2977.41 800.576 2984.25 800.576 2987.49 800.576 2988.14 803.19 2988.14 805.521 2988.14 807.287 2987.64 809.265 2987.06 811.384L2985.04 819.578 2983.6 824.947C2983.32 826.36 2982.67 828.762 2982.67 829.115 2982.67 830.386 2983.68 831.022 2984.76 831.022 2986.99 831.022 2987.42 829.256 2988 826.996 2989.01 823.04 2991.67 812.726 2992.32 809.972 2992.54 809.053 2996.35 800.576 3004.21 800.576 3007.3 800.576 3008.1 802.978 3008.1 805.521 3008.1 809.548 3005.07 817.601 3003.63 821.345 3002.98 823.04 3002.69 823.817 3002.69 825.23 3002.69 828.55 3005.22 831.022 3008.6 831.022 3015.37 831.022 3018.04 820.709 3018.04 820.144 3018.04 819.438 3017.39 819.438 3017.17 819.438 3016.45 819.438 3016.45 819.649 3016.09 820.709 3015.01 824.453 3012.71 829.468 3008.75 829.468 3007.52 829.468 3007.02 828.762 3007.02 827.137 3007.02 825.371 3007.66 823.676 3008.31 822.122 3009.68 818.448 3012.71 810.607 3012.71 806.581 3012.71 801.989 3009.83 799.022 3004.42 799.022 2999.02 799.022 2995.35 802.13 2992.68 805.875 2992.61 804.956 2992.39 802.554 2990.38 800.859 2988.57 799.376 2986.27 799.022 2984.47 799.022 2977.98 799.022 2974.45 803.543 2973.23 805.168 2972.87 801.141 2969.84 799.022 2966.6 799.022 2963.29 799.022 2961.92 801.777 2961.27 803.049 2959.97 805.521 2959.04 809.689 2959.04 809.901 2959.04 810.607 2959.76 810.607 2959.9 810.607 2960.62 810.607 2960.69 810.537 2961.13 808.982 2962.35 803.967 2963.79 800.576 2966.39 800.576 2967.54 800.576 2968.62 801.141 2968.62 803.826 2968.62 805.309 2968.4 806.086 2967.47 809.759L2963.29 826.077Z" fill-rule="evenodd"/><path d="M3141.34 705.024C3142.64 705.024 3144.03 705.024 3144.03 703.524 3144.03 702.024 3142.64 702.024 3141.34 702.024L3099.72 702.024C3098.41 702.024 3097.03 702.024 3097.03 703.524 3097.03 705.024 3098.41 705.024 3099.72 705.024L3141.34 705.024Z" fill-rule="evenodd"/><path d="M3165.05 704.928C3167.31 704.928 3173.09 704.786 3177 703.303 3182.47 701.184 3182.86 697.016 3182.86 696.027 3182.86 692.919 3179.89 690.023 3174.5 690.023 3165.83 690.023 3154.03 696.875 3154.03 709.237 3154.03 716.442 3158.64 722.023 3166.3 722.023 3177.47 722.023 3184.03 714.535 3184.03 713.687 3184.03 713.263 3183.56 712.769 3183.09 712.769 3182.7 712.769 3182.55 712.91 3182.08 713.475 3175.91 720.469 3167.39 720.469 3166.45 720.469 3160.36 720.469 3159.66 714.535 3159.66 712.274 3159.66 711.427 3159.73 709.237 3160.91 704.928L3165.05 704.928ZM3161.37 703.374C3164.42 692.636 3172.47 691.577 3174.5 691.577 3178.17 691.577 3180.28 693.625 3180.28 696.027 3180.28 703.374 3167.78 703.374 3164.58 703.374L3161.37 703.374Z" fill-rule="evenodd"/><path d="M2736 1238C2826.88 1294.62 2977.3 1379.52 3038.83 1416.01 3100.36 1452.49 3106.13 1453.13 3139.18 1453.23 3172.23 1453.34 3177.74 1453.1 3237.11 1416.62 3296.49 1380.13 3470.92 1278.35 3544 1238L3544 1835 3542.18 1835 3512.27 1818.25C3429.11 1771.24 3289.07 1689.32 3237.11 1657.4 3177.74 1620.92 3172.23 1620.68 3139.18 1620.78 3106.13 1620.88 3100.36 1621.53 3038.83 1658.01 2985 1689.93 2863.1 1758.93 2772.58 1813.61L2737.66 1835 2736 1835Z" fill="#89B0FF" fill-rule="evenodd"/><path d="M2781.37 1523.82C2781.37 1523.75 2781.37 1523.02 2780.43 1523.02 2778.77 1523.02 2773.5 1523.6 2771.63 1523.75 2771.05 1523.82 2770.25 1523.89 2770.25 1525.2 2770.25 1526.06 2770.9 1526.06 2771.99 1526.06 2775.45 1526.06 2775.6 1526.57 2775.6 1527.29 2775.6 1527.8 2774.73 1531.2 2774.23 1533.16L2769.82 1550.9C2769.53 1551.98 2769.03 1554.01 2769.03 1554.15 2769.03 1554.95 2769.75 1555.02 2770.18 1555.02L2771.19 1555.02C2776.25 1554.15 2784.11 1551.33 2791.55 1544.38 2801.08 1535.48 2803.03 1525.63 2803.03 1524.98 2803.03 1523.75 2802.16 1523.02 2800.93 1523.02 2800.36 1523.02 2798.7 1523.31 2798.12 1525.41 2793.5 1541.85 2782.53 1549.96 2774.3 1552.63L2781.37 1523.82Z" fill-rule="evenodd"/><path d="M2874.58 1530.93C2875.66 1530.93 2877.03 1530.93 2877.03 1529.48 2877.03 1528.02 2875.66 1528.02 2874.65 1528.02L2831.41 1528.02C2830.4 1528.02 2829.03 1528.02 2829.03 1529.48 2829.03 1530.93 2830.4 1530.93 2831.48 1530.93L2874.58 1530.93ZM2874.65 1545.02C2875.66 1545.02 2877.03 1545.02 2877.03 1543.57 2877.03 1542.12 2875.66 1542.12 2874.58 1542.12L2831.48 1542.12C2830.4 1542.12 2829.03 1542.12 2829.03 1543.57 2829.03 1545.02 2830.4 1545.02 2831.41 1545.02L2874.65 1545.02Z" fill-rule="evenodd"/><path d="M2922.32 1508.9C2922.32 1507.17 2922.32 1507.02 2920.72 1507.02 2916.4 1511.64 2910.26 1511.64 2908.03 1511.64L2908.03 1513.87C2909.43 1513.87 2913.54 1513.87 2917.16 1512L2917.16 1549.33C2917.16 1551.92 2916.95 1552.79 2910.68 1552.79L2908.45 1552.79 2908.45 1555.02C2910.89 1554.81 2916.95 1554.81 2919.74 1554.81 2922.53 1554.81 2928.59 1554.81 2931.03 1555.02L2931.03 1552.79 2928.8 1552.79C2922.53 1552.79 2922.32 1552 2922.32 1549.33L2922.32 1508.9Z" fill-rule="evenodd"/><path d="M2968.68 1503.72C2969.04 1502.8 2969.04 1502.51 2969.04 1502.44 2969.04 1501.66 2968.39 1501.02 2967.6 1501.02 2967.09 1501.02 2966.59 1501.24 2966.37 1501.66L2941.4 1569.32C2941.04 1570.25 2941.04 1570.53 2941.04 1570.6 2941.04 1571.38 2941.68 1572.02 2942.48 1572.02 2943.41 1572.02 2943.63 1571.53 2944.06 1570.32L2968.68 1503.72Z" fill-rule="evenodd"/><path d="M2979.29 1550.08C2979.07 1551.14 2978.64 1552.76 2978.64 1553.12 2978.64 1554.39 2979.65 1555.02 2980.73 1555.02 2981.59 1555.02 2982.89 1554.46 2983.4 1553.04 2983.47 1552.9 2984.33 1549.58 2984.76 1547.82L2986.35 1541.46C2986.78 1539.91 2987.21 1538.35 2987.57 1536.73 2987.86 1535.53 2988.44 1533.48 2988.51 1533.19 2989.59 1531.01 2993.41 1524.58 3000.25 1524.58 3003.49 1524.58 3004.14 1527.19 3004.14 1529.52 3004.14 1531.29 3003.64 1533.27 3003.06 1535.38L3001.04 1543.58 2999.6 1548.95C2999.32 1550.36 2998.67 1552.76 2998.67 1553.12 2998.67 1554.39 2999.68 1555.02 3000.76 1555.02 3002.99 1555.02 3003.42 1553.26 3004 1551 3005.01 1547.04 3007.67 1536.73 3008.32 1533.97 3008.54 1533.05 3012.35 1524.58 3020.21 1524.58 3023.3 1524.58 3024.1 1526.98 3024.1 1529.52 3024.1 1533.55 3021.07 1541.6 3019.63 1545.34 3018.98 1547.04 3018.69 1547.82 3018.69 1549.23 3018.69 1552.55 3021.22 1555.02 3024.6 1555.02 3031.37 1555.02 3034.04 1544.71 3034.04 1544.14 3034.04 1543.44 3033.39 1543.44 3033.17 1543.44 3032.45 1543.44 3032.45 1543.65 3032.09 1544.71 3031.01 1548.45 3028.71 1553.47 3024.75 1553.47 3023.52 1553.47 3023.02 1552.76 3023.02 1551.14 3023.02 1549.37 3023.66 1547.68 3024.31 1546.12 3025.68 1542.45 3028.71 1534.61 3028.71 1530.58 3028.71 1525.99 3025.83 1523.02 3020.42 1523.02 3015.02 1523.02 3011.35 1526.13 3008.68 1529.87 3008.61 1528.96 3008.39 1526.55 3006.38 1524.86 3004.57 1523.38 3002.27 1523.02 3000.47 1523.02 2993.98 1523.02 2990.45 1527.54 2989.23 1529.17 2988.87 1525.14 2985.84 1523.02 2982.6 1523.02 2979.29 1523.02 2977.92 1525.78 2977.27 1527.05 2975.97 1529.52 2975.04 1533.69 2975.04 1533.9 2975.04 1534.61 2975.76 1534.61 2975.9 1534.61 2976.62 1534.61 2976.7 1534.54 2977.13 1532.98 2978.35 1527.97 2979.79 1524.58 2982.39 1524.58 2983.54 1524.58 2984.62 1525.14 2984.62 1527.83 2984.62 1529.31 2984.4 1530.09 2983.47 1533.76L2979.29 1550.08Z" fill-rule="evenodd"/><path d="M3197.31 1540.86C3199.42 1540.86 3204.82 1540.71 3208.47 1539.13 3213.57 1536.88 3213.93 1532.45 3213.93 1531.4 3213.93 1528.1 3211.16 1525.02 3206.13 1525.02 3198.04 1525.02 3187.03 1532.3 3187.03 1545.44 3187.03 1553.09 3191.33 1559.02 3198.48 1559.02 3208.9 1559.02 3215.03 1551.07 3215.03 1550.17 3215.03 1549.72 3214.59 1549.19 3214.15 1549.19 3213.79 1549.19 3213.64 1549.34 3213.21 1549.94 3207.44 1557.37 3199.5 1557.37 3198.62 1557.37 3192.93 1557.37 3192.28 1551.07 3192.28 1548.66 3192.28 1547.76 3192.35 1545.44 3193.44 1540.86L3197.31 1540.86ZM3193.88 1539.21C3196.73 1527.8 3204.24 1526.67 3206.13 1526.67 3209.56 1526.67 3211.53 1528.85 3211.53 1531.4 3211.53 1539.21 3199.86 1539.21 3196.87 1539.21L3193.88 1539.21Z" fill-rule="evenodd"/><path d="M3234.13 1517.55C3238.38 1515.63 3240.29 1514.88 3241.58 1514.24 3242.56 1513.81 3243.03 1513.6 3243.03 1512.59 3243.03 1511.68 3242.36 1510.88 3241.43 1510.88 3241.06 1510.88 3240.96 1510.88 3240.34 1511.36L3233.31 1516.21 3234.08 1508.32C3234.19 1507.36 3234.08 1506.02 3232.53 1506.02 3231.91 1506.02 3230.93 1506.45 3230.93 1507.62 3230.93 1508.1 3231.13 1509.7 3231.19 1510.24 3231.29 1511.14 3231.65 1514.99 3231.75 1516.21L3224.77 1511.36C3224.25 1511.04 3224.1 1510.88 3223.63 1510.88 3222.7 1510.88 3222.03 1511.68 3222.03 1512.59 3222.03 1513.65 3222.65 1513.92 3223.12 1514.13L3230.93 1517.49C3226.69 1519.42 3224.77 1520.16 3223.48 1520.8 3222.5 1521.23 3222.03 1521.44 3222.03 1522.46 3222.03 1523.36 3222.7 1524.17 3223.63 1524.17 3224 1524.17 3224.1 1524.17 3224.72 1523.68L3231.75 1518.83 3230.93 1527.42C3230.93 1528.59 3231.91 1529.02 3232.53 1529.02 3233.15 1529.02 3234.13 1528.59 3234.13 1527.42 3234.13 1526.94 3233.93 1525.34 3233.88 1524.81 3233.77 1523.9 3233.41 1520.06 3233.31 1518.83L3239.51 1523.1C3240.86 1524.17 3240.96 1524.17 3241.43 1524.17 3242.36 1524.17 3243.03 1523.36 3243.03 1522.46 3243.03 1521.39 3242.41 1521.12 3241.94 1520.91L3234.13 1517.55Z" fill-rule="evenodd"/><path d="M3320.58 1533.1C3321.66 1533.1 3323.03 1533.1 3323.03 1531.56 3323.03 1530.02 3321.66 1530.02 3320.65 1530.02L3277.41 1530.02C3276.4 1530.02 3275.03 1530.02 3275.03 1531.56 3275.03 1533.1 3276.4 1533.1 3277.49 1533.1L3320.58 1533.1ZM3320.65 1548.02C3321.66 1548.02 3323.03 1548.02 3323.03 1546.48 3323.03 1544.95 3321.66 1544.95 3320.58 1544.95L3277.49 1544.95C3276.4 1544.95 3275.03 1544.95 3275.03 1546.48 3275.03 1548.02 3276.4 1548.02 3277.41 1548.02L3320.65 1548.02Z" fill-rule="evenodd"/><path d="M3379.74 1516.36C3381.11 1516.36 3384.99 1516.25 3387.64 1515.24 3391.27 1513.85 3391.96 1511.3 3391.96 1509.7 3391.96 1506.78 3389.26 1505.02 3385.87 1505.02 3379.98 1505.02 3372.04 1509.92 3372.04 1519.02 3372.04 1524.39 3375.13 1529.02 3380.87 1529.02 3389.16 1529.02 3393.04 1523.75 3393.04 1523.01 3393.04 1522.69 3392.59 1522.1 3392.2 1522.1 3391.91 1522.1 3391.81 1522.21 3391.42 1522.64 3387.59 1527.53 3381.85 1527.53 3380.97 1527.53 3378.02 1527.53 3376.06 1525.4 3376.06 1521.09 3376.06 1520.35 3376.06 1519.28 3376.65 1516.36L3379.74 1516.36ZM3377.04 1514.87C3379.05 1507.15 3384.5 1506.51 3385.87 1506.51 3388.03 1506.51 3389.85 1507.68 3389.85 1509.7 3389.85 1514.87 3381.55 1514.87 3379.44 1514.87L3377.04 1514.87Z" fill-rule="evenodd"/><rect x="3356" y="1538" width="52" height="3.00012"/><path d="M3378.43 1580.18C3378.18 1581.25 3377.73 1583.05 3377.73 1583.32 3377.73 1584.49 3378.63 1585.02 3379.43 1585.02 3380.33 1585.02 3381.13 1584.33 3381.38 1583.85 3381.64 1583.37 3382.04 1581.67 3382.29 1580.55 3382.54 1579.54 3383.09 1577.09 3383.39 1575.76 3383.69 1574.59 3383.99 1573.42 3384.24 1572.2 3384.79 1569.91 3384.79 1569.8 3385.79 1568.15 3387.4 1565.55 3389.9 1562.51 3393.81 1562.51 3396.62 1562.51 3396.77 1564.96 3396.77 1566.24 3396.77 1569.43 3394.61 1575.34 3393.81 1577.57 3393.26 1579.06 3393.06 1579.54 3393.06 1580.45 3393.06 1583.27 3395.26 1585.02 3397.82 1585.02 3402.83 1585.02 3405.04 1577.68 3405.04 1576.88 3405.04 1576.19 3404.38 1576.19 3404.23 1576.19 3403.53 1576.19 3403.48 1576.51 3403.28 1577.09 3402.13 1581.35 3399.98 1583.53 3397.97 1583.53 3396.92 1583.53 3396.72 1582.79 3396.72 1581.67 3396.72 1580.45 3396.97 1579.76 3397.87 1577.36 3398.47 1575.71 3400.53 1570.07 3400.53 1567.09 3400.53 1566.24 3400.53 1564 3398.67 1562.46 3397.82 1561.77 3396.37 1561.02 3394.01 1561.02 3389.5 1561.02 3386.75 1564.16 3385.14 1566.4 3384.74 1561.88 3381.18 1561.02 3378.63 1561.02 3374.47 1561.02 3371.66 1563.74 3370.16 1565.87 3369.81 1562.19 3366.85 1561.02 3364.8 1561.02 3362.64 1561.02 3361.49 1562.67 3360.84 1563.9 3359.74 1565.87 3359.04 1568.9 3359.04 1569.17 3359.04 1569.86 3359.74 1569.86 3359.89 1569.86 3360.59 1569.86 3360.64 1569.7 3360.99 1568.26 3361.74 1565.12 3362.69 1562.51 3364.65 1562.51 3365.95 1562.51 3366.3 1563.68 3366.3 1565.12 3366.3 1566.13 3365.85 1568.1 3365.5 1569.54 3365.15 1570.98 3364.65 1573.16 3364.4 1574.33L3362.79 1581.14C3362.59 1581.83 3362.29 1583.16 3362.29 1583.32 3362.29 1584.49 3363.19 1585.02 3364 1585.02 3364.9 1585.02 3365.7 1584.33 3365.95 1583.85 3366.2 1583.37 3366.6 1581.67 3366.85 1580.55 3367.1 1579.54 3367.65 1577.09 3367.96 1575.76 3368.26 1574.59 3368.56 1573.42 3368.81 1572.2 3369.36 1570.02 3369.46 1569.59 3370.91 1567.41 3372.31 1565.28 3374.67 1562.51 3378.43 1562.51 3381.33 1562.51 3381.38 1565.23 3381.38 1566.24 3381.38 1567.57 3381.23 1568.26 3380.53 1571.24L3378.43 1580.18Z" fill-rule="evenodd"/><path d="M2829.36 1316.61 2959.35 1399.99 2955.64 1405.78 2825.64 1322.39ZM2961.06 1388.84 2976.79 1415.26 2946.21 1411.98Z"/><path d="M1.85597-2.89341 131.852 80.4923 128.14 86.2791-1.85597 2.89341ZM133.562 69.3375 149.286 95.7588 118.715 92.4847Z" transform="matrix(1 0 0 -1 3303.5 1415.26)"/><path d="M3.43745-0.018421 4.13423 130.004-2.74067 130.041-3.43745 0.018421ZM14.422 125.365 0.819587 152.939-13.0776 125.513Z" fill="#FF0000" transform="matrix(-1 0 0 1 3140.32 1462.5)"/><path d="M3120.5 1540C3120.5 1529.23 3129.23 1520.5 3140 1520.5 3150.77 1520.5 3159.5 1529.23 3159.5 1540 3159.5 1550.77 3150.77 1559.5 3140 1559.5 3129.23 1559.5 3120.5 1550.77 3120.5 1540Z" stroke="#FF0000" stroke-width="6.875" stroke-miterlimit="8" fill="#FFFFFF" fill-rule="evenodd"/><path d="M2801 1835C2877.04 1787.65 3002.88 1716.65 3054.36 1686.14 3105.84 1655.63 3110.67 1655.09 3138.31 1655.01 3165.96 1654.92 3170.57 1655.12 3220.25 1685.63 3269.93 1716.14 3415.86 1801.26 3477 1835L2801 1835Z" fill="#C9C08A" fill-rule="evenodd"/><path d="M0 180C76.0367 132.648 201.883 61.6496 253.361 31.1404 304.839 0.631271 309.667 0.0918962 337.314 0.0069391 364.962-0.078018 369.571 0.121153 419.248 30.6303 468.925 61.1395 614.86 146.258 676 180L0 180Z" fill="#C9C08A" fill-rule="evenodd" transform="matrix(1 0 0 -1 2801 1417)"/></g></svg>