<svg width="1809" height="1101" xmlns="http://www.w3.org/2000/svg" xmlns:xlink="http://www.w3.org/1999/xlink" xml:space="preserve" overflow="hidden"><g transform="translate(-55 -1139)"><rect x="324" y="1291" width="1412" height="949" fill="#AEAEAE"/><path d="M749.412 2014 1318.59 2014C1338.7 2014 1355 2030.28 1355 2050.35L1355 2109.56C1355 2129.64 1338.7 2145.92 1318.59 2145.92L1124.76 2145.92 1124.76 2238 945.532 2238 945.532 2145.92 749.412 2145.92C729.302 2145.92 713 2129.64 713 2109.56L713 2050.35C713 2030.28 729.302 2014 749.412 2014Z" fill-rule="evenodd"/><path d="M588.744 1820 651.256 1820C670.445 1820 686 1835.56 686 1854.74L686 2237 554 2237 554 1854.74C554 1835.56 569.555 1820 588.744 1820Z" fill-rule="evenodd"/><path d="M1418.74 1820 1481.26 1820C1500.44 1820 1516 1835.56 1516 1854.74L1516 2237 1384 2237 1384 1854.74C1384 1835.56 1399.56 1820 1418.74 1820Z" fill-rule="evenodd"/><path d="M1481.26 1707 1418.74 1707C1399.56 1707 1384 1691.44 1384 1672.26L1384 1290 1516 1290 1516 1672.26C1516 1691.44 1500.44 1707 1481.26 1707Z" fill-rule="evenodd"/><path d="M651.256 1707 588.744 1707C569.555 1707 554 1691.44 554 1672.26L554 1290 686 1290 686 1672.26C686 1691.44 670.445 1707 651.256 1707Z" fill-rule="evenodd"/><path d="M944.602 1289 1124.11 1289 1124.11 1381.49 1320.53 1381.49C1340.67 1381.49 1357 1397.84 1357 1418.01L1357 1477.48C1357 1497.65 1340.67 1514 1320.53 1514L750.469 1514C730.327 1514 714 1497.65 714 1477.48L714 1418.01C714 1397.84 730.327 1381.49 750.469 1381.49L944.602 1381.49Z" fill-rule="evenodd"/><path d="M330.5 1304.56 497.135 1304.72C524.28 1304.07 544.469 1311.39 543.46 1344.91 542.45 1378.42 534.129 1596.85 541.168 1659.34 548.206 1721.84 566.731 1717.96 585.691 1719.87 604.652 1721.78 646.911 1722.41 663.771 1721.02 680.632 1719.62 692.444 1702.81 698.637 1676.07 704.829 1649.34 699.891 1586.46 700.928 1560.6 701.965 1534.74 709.658 1527.85 740.214 1526.81 770.769 1525.77 1286.8 1526.21 1320.98 1526.65 1355.17 1527.09 1368.53 1541.6 1366.65 1567.82 1364.77 1594.03 1367.2 1645.54 1368.62 1672.14 1370.03 1698.74 1392.3 1712.95 1413.47 1721.51 1434.64 1730.07 1475.7 1725.45 1495.64 1723.48 1515.58 1721.51 1524.97 1723.53 1530.18 1662.46 1535.39 1601.39 1526.79 1385.92 1526.9 1357.05 1527.01 1328.18 1551.46 1307.4 1577.97 1306.2 1604.49 1305 1676.68 1304.28 1741.5 1304.56" stroke="#FF0000" stroke-width="6.875" stroke-miterlimit="8" fill="none" fill-rule="evenodd"/><path d="M553.68 1708.5C568.218 1724.91 574.204 1732.43 575.7 1744.48 577.196 1756.52 579.229 1764.21 574.853 1774.89 570.477 1785.57 560.315 1794.87 549.446 1808.58 538.578 1822.28 525.057 1842.15 524.887 1874.8 524.718 1907.45 520.596 2119.35 520.991 2151.64 521.386 2183.94 510.886 2200.4 490.674 2201.03 470.462 2201.66 373.748 2201.63 323.5 2202.5" stroke="#FF0000" stroke-width="6.875" stroke-miterlimit="8" stroke-dasharray="55 20.625 6.875 20.625" fill="none" fill-rule="evenodd"/><path d="M1390.29 1707.5C1409.54 1721.42 1416.8 1731.17 1417.98 1748.29 1419.16 1765.41 1423.44 1774.89 1417.15 1786.63 1410.86 1798.37 1388.67 1805.88 1380.24 1818.74 1371.8 1831.6 1365.49 1840.77 1366.56 1863.79 1367.63 1886.81 1366.86 1941.28 1366.89 1964.71 1366.91 1988.13 1354.2 2000.99 1325.19 2001.4 1296.19 2001.81 770.07 1998.21 738.976 1999.6 707.883 2000.99 703.955 1981.96 696.621 1959.63 689.287 1937.29 694.643 1892.51 694.972 1865.59 695.302 1838.67 671.158 1813.36 651.134 1812.84 631.111 1812.32 612.158 1810.98 580.763 1812.35 549.367 1813.71 538.489 1837.19 539.89 1877.06 541.291 1916.92 532.502 2155.07 532.804 2181.28 533.106 2207.5 518.74 2223.39 497.206 2223.06 475.671 2222.73 348.578 2224.4 323.5 2226.5" stroke="#FF0000" stroke-width="6.875" stroke-miterlimit="8" stroke-dasharray="27.5 20.625" fill="none" fill-rule="evenodd"/><path d="M431 1291 460 1303.5 431 1316Z" fill="#FF0000" fill-rule="evenodd"/><path d="M610 1709 640 1721 610 1733Z" fill="#FF0000" fill-rule="evenodd"/><path d="M791 1513 821 1525.5 791 1538Z" fill="#FF0000" fill-rule="evenodd"/><path d="M1265 1513 1295 1525.5 1265 1538Z" fill="#FF0000" fill-rule="evenodd"/><path d="M1443 1714 1473 1726.5 1443 1739Z" fill="#FF0000" fill-rule="evenodd"/><path d="M1626 1292 1656 1304.5 1626 1317Z" fill="#FF0000" fill-rule="evenodd"/><path d="M1518 1519 1530 1490 1542 1519Z" fill="#FF0000" fill-rule="evenodd"/><path d="M551 1490 538.5 1519 526 1490Z" fill="#FF0000" fill-rule="evenodd"/><path d="M801 2012 772 1999.5 801 1987Z" fill="#FF0000" fill-rule="evenodd"/><path d="M1280 2012 1250 1999.5 1280 1987Z" fill="#FF0000" fill-rule="evenodd"/><path d="M655 1825 625 1812.5 655 1800Z" fill="#FF0000" fill-rule="evenodd"/><path d="M551 1957 538.5 1987 526 1957Z" fill="#FF0000" fill-rule="evenodd"/><path d="M533 2131 521 2161 509 2131Z" fill="#FF0000" fill-rule="evenodd"/><path d="M589 1741 576.5 1771 564 1741Z" fill="#FF0000" fill-rule="evenodd"/><path d="M1432 1756 1419.5 1785 1407 1756Z" fill="#FF0000" fill-rule="evenodd"/><path d="M213.5 1304.5 324.048 1304.5" stroke="#000000" stroke-width="6.875" stroke-miterlimit="8" fill="none" fill-rule="evenodd"/><path d="M77.4998 1404.5 99.869 1404.5" stroke="#000000" stroke-width="6.875" stroke-miterlimit="8" fill="none" fill-rule="evenodd"/><path d="M66.4998 1387.5 111.435 1387.5" stroke="#000000" stroke-width="6.875" stroke-miterlimit="8" fill="none" fill-rule="evenodd"/><path d="M55.4998 1370.5 122.607 1370.5" stroke="#000000" stroke-width="6.875" stroke-miterlimit="8" fill="none" fill-rule="evenodd"/><path d="M0 0 0.000360892 67.4154" stroke="#000000" stroke-width="6.875" stroke-miterlimit="8" fill="none" fill-rule="evenodd" transform="matrix(1 0 0 -1 88.4998 1370.92)"/><path d="M88.4998 1304.5 151.661 1304.5" stroke="#000000" stroke-width="6.875" stroke-miterlimit="8" fill="none" fill-rule="evenodd"/><path d="M151.5 1304C151.5 1287.16 165.379 1273.5 182.5 1273.5 199.621 1273.5 213.5 1287.16 213.5 1304 213.5 1320.84 199.621 1334.5 182.5 1334.5 165.379 1334.5 151.5 1320.84 151.5 1304Z" stroke="#000000" stroke-width="3.4375" stroke-miterlimit="8" fill="none" fill-rule="evenodd"/><path d="M156.5 1306.41C159.132 1294.21 165.301 1291.43 170.04 1291.5 174.779 1291.57 178.991 1296.54 182.226 1304.22 185.46 1311.89 189.748 1316.43 194.863 1316.5 199.978 1316.57 202.949 1312.26 207.5 1302.03" stroke="#000000" stroke-width="3.4375" stroke-miterlimit="8" fill="none" fill-rule="evenodd"/><path d="M207.5 2214.5 322.021 2214.5" stroke="#000000" stroke-width="6.875" stroke-miterlimit="8" fill="none" fill-rule="evenodd"/><path d="M0 0 22.3692 0.000360892" stroke="#000000" stroke-width="6.875" stroke-miterlimit="8" fill="none" fill-rule="evenodd" transform="matrix(-1 0 0 1 1841.87 1404.5)"/><path d="M0 0 44.9351 0.000360892" stroke="#000000" stroke-width="6.875" stroke-miterlimit="8" fill="none" fill-rule="evenodd" transform="matrix(-1 0 0 1 1852.44 1387.5)"/><path d="M0 0 67.1072 0.000360892" stroke="#000000" stroke-width="6.875" stroke-miterlimit="8" fill="none" fill-rule="evenodd" transform="matrix(-1 0 0 1 1863.61 1370.5)"/><path d="M1830.5 1370.92 1830.5 1303.5" stroke="#000000" stroke-width="6.875" stroke-miterlimit="8" fill="none" fill-rule="evenodd"/><path d="M0 0 93.945 0.000360892" stroke="#000000" stroke-width="6.875" stroke-miterlimit="8" fill="none" fill-rule="evenodd" transform="matrix(-1 0 0 1 1830.45 1304.5)"/><path d="M0 0 0.000360892 132.031" stroke="#000000" stroke-width="3.4375" stroke-miterlimit="8" fill="none" fill-rule="evenodd" transform="matrix(1 0 0 -1 291.5 1305.53)"/><path d="M1060.08 1139.91C1060.08 1139.64 1059.91 1139.03 1059.14 1139.03 1058.88 1139.03 1058.79 1139.11 1057.85 1140.08L1051.84 1146.86C1051.06 1145.63 1047.11 1139.03 1037.57 1139.03 1018.41 1139.03 999.083 1158.48 999.083 1178.91 999.083 1192.9 1008.62 1203.03 1022.54 1203.03 1026.32 1203.03 1030.18 1202.23 1033.28 1200.91 1037.57 1199.15 1039.21 1197.31 1040.75 1195.54 1041.53 1197.75 1043.76 1201 1044.62 1201 1045.05 1201 1045.22 1200.74 1045.22 1200.65 1045.39 1200.47 1046.25 1197.13 1046.68 1195.28L1048.31 1188.5C1048.66 1187.01 1049.09 1185.51 1049.43 1184.01 1050.37 1180.05 1050.46 1179.87 1055.36 1179.79 1055.79 1179.79 1056.73 1179.7 1056.73 1178.03 1056.73 1177.41 1056.3 1177.06 1055.62 1177.06 1053.64 1177.06 1048.57 1177.32 1046.59 1177.32 1043.93 1177.32 1037.23 1177.06 1034.57 1177.06 1033.79 1177.06 1032.76 1177.06 1032.76 1178.82 1032.76 1179.79 1033.45 1179.79 1035.34 1179.79 1035.43 1179.79 1037.92 1179.79 1039.89 1179.96 1042.13 1180.23 1042.56 1180.49 1042.56 1181.64 1042.56 1182.43 1041.61 1186.39 1040.75 1189.65 1038.35 1199.33 1027.18 1200.3 1024.17 1200.3 1015.92 1200.3 1006.9 1195.28 1006.9 1181.81 1006.9 1179.08 1007.76 1164.56 1016.78 1153.11 1021.42 1147.13 1029.76 1141.76 1038.26 1141.76 1047.02 1141.76 1052.09 1148.53 1052.09 1158.75 1052.09 1162.27 1051.84 1162.36 1051.84 1163.24 1051.84 1164.12 1052.78 1164.12 1053.12 1164.12 1054.24 1164.12 1054.24 1163.94 1054.67 1162.36L1060.08 1139.91Z" fill-rule="evenodd"/><path d="M661.696 1780.58C658.718 1779.49 652.542 1775.51 652.542 1762.97 652.542 1748.8 660.262 1744.39 665.335 1744.39 670.684 1744.39 678.183 1749.07 678.183 1762.97 678.183 1767.22 677.521 1774.91 671.676 1779.16 670.463 1776.11 668.699 1773.38 665.445 1773.38 662.633 1773.38 660.924 1775.73 660.924 1777.96 660.924 1779.43 661.641 1780.47 661.696 1780.58ZM670.242 1780.03C668.368 1781.07 666.603 1781.29 665.39 1781.29 662.578 1781.29 662.137 1778.78 662.137 1777.96 662.137 1776.38 663.295 1774.58 665.445 1774.58 668.423 1774.58 669.636 1776.87 670.242 1780.03ZM672.503 1781.07C679.01 1778.18 683.697 1771.2 683.697 1762.97 683.697 1751.85 675.371 1743.02 665.335 1743.02 655.465 1743.02 647.028 1751.74 647.028 1762.97 647.028 1773.98 655.354 1782.65 665.39 1782.65 667.099 1782.65 669.029 1782.32 670.628 1781.83 671.456 1787.01 672.228 1792.02 677.356 1792.02 682.98 1792.02 684.028 1784.77 684.028 1781.99 684.028 1781.45 684.028 1780.85 683.422 1780.85 682.925 1780.85 682.87 1781.29 682.815 1781.83 682.484 1784.77 680.168 1786.41 677.797 1786.41 675.205 1786.41 673.827 1784.56 672.503 1781.07Z" fill-rule="evenodd"/><path d="M698.788 1763.9 708.257 1763.9C714.98 1763.9 721.031 1759.52 721.031 1754.1 721.031 1748.79 715.484 1744.02 707.809 1744.02L688.031 1744.02 688.031 1745.7 689.375 1745.7C693.69 1745.7 693.802 1746.3 693.802 1748.25L693.802 1776.8C693.802 1778.75 693.69 1779.34 689.375 1779.34L688.031 1779.34 688.031 1781.02C689.992 1780.86 694.138 1780.86 696.267 1780.86 698.396 1780.86 702.598 1780.86 704.559 1781.02L704.559 1779.34 703.215 1779.34C698.9 1779.34 698.788 1778.75 698.788 1776.8L698.788 1763.9ZM698.62 1762.5 698.62 1747.87C698.62 1746.08 698.732 1745.7 701.365 1745.7L706.352 1745.7C715.26 1745.7 715.26 1751.44 715.26 1754.1 715.26 1756.64 715.26 1762.5 706.352 1762.5L698.62 1762.5Z" fill-rule="evenodd"/><path d="M727.033 1763C727.033 1774.38 735.811 1783.02 745.89 1783.02 754.723 1783.02 760.033 1775.38 760.033 1768.99 760.033 1768.44 760.033 1768.06 759.328 1768.06 758.732 1768.06 758.732 1768.39 758.678 1768.94 758.245 1776.81 752.447 1781.32 746.54 1781.32 743.235 1781.32 732.614 1779.45 732.614 1763.05 732.614 1746.6 743.181 1744.73 746.486 1744.73 752.392 1744.73 757.215 1749.74 758.299 1757.77 758.407 1758.54 758.407 1758.7 759.166 1758.7 760.033 1758.7 760.033 1758.54 760.033 1757.38L760.033 1744.34C760.033 1743.41 760.033 1743.02 759.437 1743.02 759.22 1743.02 759.003 1743.02 758.57 1743.68L755.86 1747.75C753.855 1745.77 751.092 1743.02 745.89 1743.02 735.757 1743.02 727.033 1751.77 727.033 1763Z" fill-rule="evenodd"/><path d="M779.217 1746.43C779.217 1745.13 779.217 1745.02 777.963 1745.02 774.581 1748.48 769.781 1748.48 768.035 1748.48L768.035 1750.16C769.126 1750.16 772.344 1750.16 775.181 1748.75L775.181 1776.75C775.181 1778.7 775.017 1779.35 770.108 1779.35L768.362 1779.35 768.362 1781.02C770.272 1780.86 775.017 1780.86 777.199 1780.86 779.381 1780.86 784.126 1780.86 786.036 1781.02L786.036 1779.35 784.29 1779.35C779.381 1779.35 779.217 1778.75 779.217 1776.75L779.217 1746.43Z" fill-rule="evenodd"/><path d="M1487.3 1778.58C1484.4 1777.49 1478.39 1773.51 1478.39 1760.97 1478.39 1746.8 1485.9 1742.39 1490.84 1742.39 1496.04 1742.39 1503.34 1747.07 1503.34 1760.97 1503.34 1765.22 1502.7 1772.91 1497.01 1777.16 1495.83 1774.11 1494.11 1771.38 1490.95 1771.38 1488.21 1771.38 1486.55 1773.73 1486.55 1775.96 1486.55 1777.43 1487.24 1778.47 1487.3 1778.58ZM1495.61 1778.03C1493.79 1779.07 1492.07 1779.29 1490.89 1779.29 1488.16 1779.29 1487.73 1776.78 1487.73 1775.96 1487.73 1774.38 1488.85 1772.58 1490.95 1772.58 1493.84 1772.58 1495.02 1774.87 1495.61 1778.03ZM1497.81 1779.07C1504.14 1776.18 1508.71 1769.2 1508.71 1760.97 1508.71 1749.85 1500.6 1741.02 1490.84 1741.02 1481.24 1741.02 1473.03 1749.74 1473.03 1760.97 1473.03 1771.98 1481.13 1780.65 1490.89 1780.65 1492.56 1780.65 1494.43 1780.32 1495.99 1779.83 1496.79 1785.01 1497.55 1790.02 1502.54 1790.02 1508.01 1790.02 1509.03 1782.77 1509.03 1779.99 1509.03 1779.45 1509.03 1778.85 1508.44 1778.85 1507.95 1778.85 1507.9 1779.29 1507.85 1779.83 1507.53 1782.77 1505.27 1784.41 1502.96 1784.41 1500.44 1784.41 1499.1 1782.56 1497.81 1779.07Z" fill-rule="evenodd"/><path d="M1524.46 1761.9 1533.64 1761.9C1540.16 1761.9 1546.03 1757.52 1546.03 1752.1 1546.03 1746.79 1540.65 1742.02 1533.21 1742.02L1514.03 1742.02 1514.03 1743.7 1515.33 1743.7C1519.52 1743.7 1519.63 1744.3 1519.63 1746.25L1519.63 1774.8C1519.63 1776.75 1519.52 1777.34 1515.33 1777.34L1514.03 1777.34 1514.03 1779.02C1515.93 1778.86 1519.95 1778.86 1522.02 1778.86 1524.08 1778.86 1528.16 1778.86 1530.06 1779.02L1530.06 1777.34 1528.75 1777.34C1524.57 1777.34 1524.46 1776.75 1524.46 1774.8L1524.46 1761.9ZM1524.3 1760.5 1524.3 1745.87C1524.3 1744.08 1524.41 1743.7 1526.96 1743.7L1531.8 1743.7C1540.43 1743.7 1540.43 1749.44 1540.43 1752.1 1540.43 1754.64 1540.43 1760.5 1531.8 1760.5L1524.3 1760.5Z" fill-rule="evenodd"/><path d="M1552.03 1761C1552.03 1772.38 1561.08 1781.02 1571.46 1781.02 1580.56 1781.02 1586.03 1773.38 1586.03 1766.99 1586.03 1766.44 1586.03 1766.06 1585.31 1766.06 1584.69 1766.06 1584.69 1766.39 1584.64 1766.94 1584.19 1774.81 1578.22 1779.32 1572.13 1779.32 1568.73 1779.32 1557.78 1777.45 1557.78 1761.05 1557.78 1744.6 1568.67 1742.73 1572.08 1742.73 1578.16 1742.73 1583.13 1747.74 1584.25 1755.77 1584.36 1756.54 1584.36 1756.7 1585.14 1756.7 1586.03 1756.7 1586.03 1756.54 1586.03 1755.38L1586.03 1742.34C1586.03 1741.41 1586.03 1741.02 1585.42 1741.02 1585.2 1741.02 1584.97 1741.02 1584.53 1741.68L1581.73 1745.75C1579.67 1743.77 1576.82 1741.02 1571.46 1741.02 1561.02 1741.02 1552.03 1749.77 1552.03 1761Z" fill-rule="evenodd"/><path d="M1596.28 1774.86 1602.13 1769.29C1610.73 1761.83 1614.04 1758.91 1614.04 1753.51 1614.04 1747.35 1609.07 1743.02 1602.35 1743.02 1596.12 1743.02 1592.04 1748 1592.04 1752.81 1592.04 1755.83 1594.79 1755.83 1594.96 1755.83 1595.9 1755.83 1597.83 1755.18 1597.83 1752.97 1597.83 1751.56 1596.83 1750.16 1594.9 1750.16 1594.46 1750.16 1594.35 1750.16 1594.19 1750.21 1595.45 1746.7 1598.43 1744.7 1601.63 1744.7 1606.65 1744.7 1609.02 1749.08 1609.02 1753.51 1609.02 1757.83 1606.26 1762.1 1603.23 1765.45L1592.64 1777.02C1592.04 1777.62 1592.04 1777.72 1592.04 1779.02L1612.49 1779.02 1614.04 1769.62 1612.66 1769.62C1612.38 1771.24 1612 1773.62 1611.44 1774.43 1611.06 1774.86 1607.42 1774.86 1606.21 1774.86L1596.28 1774.86Z" fill-rule="evenodd"/><path d="M121.901 1229.59 114.967 1227.97C111.608 1227.19 109.495 1224.36 109.495 1221.33 109.495 1217.67 112.421 1214.49 116.646 1214.49 125.694 1214.49 126.886 1223.06 127.211 1225.41 127.265 1225.72 127.265 1226.04 127.861 1226.04 128.565 1226.04 128.565 1225.78 128.565 1224.78L128.565 1214.28C128.565 1213.39 128.565 1213.02 127.969 1213.02 127.59 1213.02 127.536 1213.07 127.157 1213.7L125.26 1216.68C123.635 1215.17 121.414 1213.02 116.592 1213.02 110.579 1213.02 106.028 1217.62 106.028 1223.16 106.028 1227.5 108.899 1231.32 113.125 1232.73 113.721 1232.94 116.484 1233.56 120.276 1234.45 121.739 1234.82 123.364 1235.18 124.881 1237.12 126.019 1238.48 126.56 1240.2 126.56 1241.93 126.56 1245.64 123.852 1249.4 119.301 1249.4 117.73 1249.4 113.613 1249.14 110.741 1246.58 107.599 1243.76 107.436 1240.41 107.382 1238.53 107.328 1238.01 106.895 1238.01 106.732 1238.01 106.028 1238.01 106.028 1238.37 106.028 1239.31L106.028 1249.77C106.028 1250.66 106.028 1251.02 106.624 1251.02 107.003 1251.02 107.057 1250.92 107.436 1250.34 107.436 1250.29 107.599 1250.13 109.387 1247.36 111.066 1249.14 114.533 1251.02 119.355 1251.02 125.694 1251.02 130.028 1245.9 130.028 1240.15 130.028 1234.92 126.452 1230.64 121.901 1229.59Z" fill-rule="evenodd"/><path d="M158.029 1238.26C158.029 1231.56 152.837 1226.02 146.555 1226.02 140.065 1226.02 135.029 1231.72 135.029 1238.26 135.029 1245 140.428 1250.02 146.503 1250.02 152.785 1250.02 158.029 1244.9 158.029 1238.26ZM146.555 1248.72C144.322 1248.72 142.038 1247.62 140.636 1245.21 139.338 1242.91 139.338 1239.72 139.338 1237.84 139.338 1235.8 139.338 1232.98 140.584 1230.68 141.986 1228.27 144.426 1227.17 146.503 1227.17 148.787 1227.17 151.02 1228.32 152.37 1230.57 153.72 1232.82 153.72 1235.85 153.72 1237.84 153.72 1239.72 153.72 1242.55 152.577 1244.85 151.435 1247.2 149.151 1248.72 146.555 1248.72Z" fill-rule="evenodd"/><path d="M181.302 1245.45 181.302 1250.02 189.031 1249.46 189.031 1247.89C185.274 1247.89 184.845 1247.53 184.845 1245.05L184.845 1227.02 176.954 1227.58 176.954 1229.15C180.711 1229.15 181.141 1229.51 181.141 1232L181.141 1241.03C181.141 1245.45 178.564 1248.91 174.646 1248.91 170.137 1248.91 169.922 1246.52 169.922 1243.88L169.922 1227.02 162.031 1227.58 162.031 1229.15C166.218 1229.15 166.218 1229.31 166.218 1233.83L166.218 1241.44C166.218 1245.4 166.218 1250.02 174.377 1250.02 177.383 1250.02 179.745 1248.6 181.302 1245.45Z" fill-rule="evenodd"/><path d="M198.48 1232.75 198.48 1227.02 191.034 1227.59 191.034 1229.21C194.784 1229.21 195.212 1229.57 195.212 1232.12L195.212 1246.07C195.212 1248.41 194.623 1248.41 191.034 1248.41L191.034 1250.02C193.123 1249.97 195.641 1249.87 197.141 1249.87 199.284 1249.87 201.801 1249.87 203.944 1250.02L203.944 1248.41 202.819 1248.41C198.855 1248.41 198.748 1247.84 198.748 1245.96L198.748 1237.95C198.748 1232.8 200.998 1228.17 205.069 1228.17 205.444 1228.17 205.551 1228.17 205.659 1228.22 205.498 1228.27 204.426 1228.9 204.426 1230.25 204.426 1231.71 205.551 1232.49 206.73 1232.49 207.694 1232.49 209.033 1231.86 209.033 1230.2 209.033 1228.53 207.373 1227.02 205.069 1227.02 201.158 1227.02 199.23 1230.51 198.48 1232.75Z" fill-rule="evenodd"/><path d="M217.391 1238.05C217.391 1229.53 221.696 1227.33 224.478 1227.33 224.95 1227.33 228.257 1227.38 230.095 1229.26 227.942 1229.42 227.627 1230.99 227.627 1231.67 227.627 1233.03 228.572 1234.07 230.042 1234.07 231.407 1234.07 232.457 1233.19 232.457 1231.62 232.457 1228.06 228.467 1226.02 224.425 1226.02 217.863 1226.02 213.034 1231.67 213.034 1238.15 213.034 1244.85 218.231 1250.02 224.32 1250.02 231.354 1250.02 233.034 1243.75 233.034 1243.22 233.034 1242.7 232.509 1242.7 232.352 1242.7 231.879 1242.7 231.774 1242.91 231.669 1243.22 230.147 1248.09 226.735 1248.72 224.793 1248.72 222.01 1248.72 217.391 1246.47 217.391 1238.05Z" fill-rule="evenodd"/><path d="M240.595 1236.27C240.921 1228.48 245.479 1227.17 247.324 1227.17 252.913 1227.17 253.455 1234.23 253.455 1236.27L240.595 1236.27ZM240.541 1237.37 255.68 1237.37C256.874 1237.37 257.037 1237.37 257.037 1236.27 257.037 1231.09 254.107 1226.02 247.324 1226.02 241.029 1226.02 236.037 1231.41 236.037 1237.94 236.037 1244.95 241.734 1250.02 247.975 1250.02 254.595 1250.02 257.037 1244.22 257.037 1243.22 257.037 1242.7 256.603 1242.6 256.332 1242.6 255.843 1242.6 255.735 1242.91 255.626 1243.33 253.727 1248.72 248.843 1248.72 248.3 1248.72 245.588 1248.72 243.417 1247.15 242.169 1245.21 240.541 1242.7 240.541 1239.25 240.541 1237.37Z" fill-rule="evenodd"/><path d="M0 0 0.000360892 132.031" stroke="#000000" stroke-width="3.4375" stroke-miterlimit="8" fill="none" fill-rule="evenodd" transform="matrix(1 0 0 -1 1774.5 1305.53)"/><path d="M0 0 677.332 0.000360892" stroke="#000000" stroke-width="3.4375" stroke-miterlimit="8" fill="none" fill-rule="evenodd" transform="matrix(-1 0 0 1 968.832 1173.5)"/><path d="M0 0 686.368 0.000360892" stroke="#000000" stroke-width="3.4375" stroke-miterlimit="8" fill="none" fill-rule="evenodd" transform="matrix(-1 0 0 1 1775.87 1173.5)"/></g></svg>