<svg width="1203" height="854" xmlns="http://www.w3.org/2000/svg" xmlns:xlink="http://www.w3.org/1999/xlink" xml:space="preserve" overflow="hidden"><g transform="translate(-365 -1487)"><path d="M6.875-3.06093e-06 6.87535 776.206-6.87465 776.206-6.875 3.06093e-06ZM20.6253 769.332 0.000360892 810.582-20.6247 769.332Z" transform="matrix(1 0 0 -1 606 2340.58)"/><path d="M512.959 1584.28 520.371 1584.28 517.417 1597.55 533.745 1597.55 532.563 1602.97 516.235 1602.97 511.455 1623.81C510.524 1627.86 509.933 1630.77 509.682 1632.54 509.432 1634.31 509.306 1635.74 509.306 1636.81 509.306 1641.25 511.15 1643.47 514.839 1643.47 516.414 1643.47 518.088 1642.87 519.86 1641.67 521.633 1640.47 523.737 1638.42 526.172 1635.52L529.287 1638.74C526.172 1642.5 523.173 1645.28 520.29 1647.07 517.408 1648.86 514.391 1649.76 511.24 1649.76 503.756 1649.76 500.014 1645.98 500.014 1638.42 500.014 1636.02 500.319 1633.5 500.927 1630.85L507.265 1602.97 498.242 1602.97 499.047 1599.27C501.16 1599.23 502.762 1599.07 503.855 1598.78 504.947 1598.5 505.86 1598.1 506.594 1597.6 507.328 1597.1 507.999 1596.38 508.608 1595.45 509.217 1594.52 509.808 1593.33 510.38 1591.88 510.953 1590.43 511.813 1587.9 512.959 1584.28Z" fill-rule="evenodd"/><text fill="#000000" fill-opacity="0" font-family="Arial,Arial_MSFontService,sans-serif" font-size="65.4736" x="498.242" y="1641.57">𝑡</text><path d="M700.5 2214.5 859.158 2057.5 1558.5 2057.5 1399.84 2214.5Z" stroke="#000000" stroke-width="6.875" stroke-miterlimit="8" fill="none" fill-rule="evenodd"/><path d="M919 1684.5C919 1664.34 935.341 1648 955.5 1648 975.658 1648 992 1664.34 992 1684.5 992 1704.66 975.658 1721 955.5 1721 935.341 1721 919 1704.66 919 1684.5Z" fill="#E93725" fill-rule="evenodd"/><path d="M1266 1684.5C1266 1664.34 1282.12 1648 1302 1648 1321.88 1648 1338 1664.34 1338 1684.5 1338 1704.66 1321.88 1721 1302 1721 1282.12 1721 1266 1704.66 1266 1684.5Z" fill="#F8BA17" fill-rule="evenodd"/><path d="M919 2135.5C919 2115.34 935.341 2099 955.5 2099 975.658 2099 992 2115.34 992 2135.5 992 2155.66 975.658 2172 955.5 2172 935.341 2172 919 2155.66 919 2135.5Z" fill="#E93725" fill-rule="evenodd"/><path d="M1266 2135.5C1266 2115.34 1282.12 2099 1302 2099 1321.88 2099 1338 2115.34 1338 2135.5 1338 2155.66 1321.88 2172 1302 2172 1282.12 2172 1266 2155.66 1266 2135.5Z" fill="#F8BA17" fill-rule="evenodd"/><path d="M0 0 0.0472769 17.347" stroke="#F8BA17" stroke-width="20.625" stroke-miterlimit="8" fill="none" fill-rule="evenodd" transform="matrix(-1 0 0 1 956.547 1905.5)"/><path d="M0 184C-0.039284 146.482 124.623 109.642 172.77 92.4344 220.918 75.2269 343.46 36.8045 342.998 0" stroke="#F8BA17" stroke-width="20.625" stroke-miterlimit="8" fill="none" fill-rule="evenodd" transform="matrix(-1 0 0 1 1299.5 1923.5)"/><path d="M0 184C-0.0393985 146.482 124.986 109.642 173.274 92.4344 221.562 75.2269 344.462 36.8045 343.998 0" stroke="#E93725" stroke-width="20.625" stroke-miterlimit="8" fill="none" fill-rule="evenodd" transform="matrix(-1 0 0 1 1299.5 1721.5)"/><path d="M0 0 0.00108268 17.2341" stroke="#E93725" stroke-width="20.625" stroke-miterlimit="8" fill="none" fill-rule="evenodd" transform="matrix(-1 0 0 1 1299.5 1905.5)"/><path d="M1064.28 2010.93 1174.25 1974.07 1189.77 2020.37 1079.8 2057.23Z" fill="#FFFFFF" fill-rule="evenodd"/><path d="M1064.28 1811.06 1174.25 1774.2 1189.77 1820.5 1079.8 1857.36Z" fill="#FFFFFF" fill-rule="evenodd"/><path d="M956.5 2107.5C956.461 2069.78 1081.12 2032.74 1129.27 2015.44 1177.42 1998.14 1299.96 1959.5 1299.5 1922.5" stroke="#E93725" stroke-width="20.625" stroke-miterlimit="8" fill="none" fill-rule="evenodd"/><path d="M956.5 1905.5C956.461 1867.98 1081.12 1831.14 1129.27 1813.93 1177.42 1796.73 1299.96 1758.3 1299.5 1721.5" stroke="#F8BA17" stroke-width="20.625" stroke-miterlimit="8" fill="none" fill-rule="evenodd"/><path d="M700.5 1771.5 859.158 1614.5 1558.5 1614.5 1399.84 1771.5Z" stroke="#000000" stroke-width="6.875" stroke-miterlimit="8" fill="none" fill-rule="evenodd"/></g></svg>