<svg width="1203" height="854" xmlns="http://www.w3.org/2000/svg" xmlns:xlink="http://www.w3.org/1999/xlink" xml:space="preserve" overflow="hidden"><g transform="translate(-365 -536)"><path d="M6.875-3.06093e-06 6.87535 776.206-6.87465 776.206-6.875 3.06093e-06ZM20.6253 769.332 0.000360892 810.582-20.6247 769.332Z" transform="matrix(1 0 0 -1 606 1389.58)"/><path d="M512.959 632.99 520.371 632.99 517.417 646.257 533.745 646.257 532.563 651.682 516.235 651.682 511.455 672.521C510.524 676.568 509.933 679.477 509.682 681.249 509.432 683.022 509.306 684.445 509.306 685.519 509.306 689.96 511.15 692.18 514.839 692.18 516.414 692.18 518.088 691.58 519.86 690.38 521.633 689.181 523.737 687.131 526.172 684.23L529.287 687.453C526.172 691.213 523.173 693.988 520.29 695.778 517.408 697.569 514.391 698.464 511.24 698.464 503.756 698.464 500.014 694.686 500.014 687.131 500.014 684.732 500.319 682.207 500.927 679.558L507.265 651.682 498.242 651.682 499.047 647.976C501.16 647.94 502.762 647.779 503.855 647.492 504.947 647.206 505.86 646.812 506.594 646.31 507.328 645.809 507.999 645.093 508.608 644.162 509.217 643.231 509.808 642.04 510.38 640.59 510.953 639.14 511.813 636.607 512.959 632.99Z" fill-rule="evenodd"/><text fill="#000000" fill-opacity="0" font-family="Arial,Arial_MSFontService,sans-serif" font-size="65.4736" x="498.242" y="690.28">𝑡</text><path d="M700.5 1264.5 858.147 1108.5 1558.5 1108.5 1400.85 1264.5Z" stroke="#000000" stroke-width="6.875" stroke-miterlimit="8" fill="none" fill-rule="evenodd"/><path d="M919 735C919 715.118 935.341 699 955.5 699 975.658 699 992 715.118 992 735 992 754.882 975.658 771 955.5 771 935.341 771 919 754.882 919 735Z" fill="#E93725" fill-rule="evenodd"/><path d="M1266 735C1266 715.118 1282.12 699 1302 699 1321.88 699 1338 715.118 1338 735 1338 754.882 1321.88 771 1302 771 1282.12 771 1266 754.882 1266 735Z" fill="#F8BA17" fill-rule="evenodd"/><path d="M919 1186C919 1166.12 935.341 1150 955.5 1150 975.658 1150 992 1166.12 992 1186 992 1205.88 975.658 1222 955.5 1222 935.341 1222 919 1205.88 919 1186Z" fill="#E93725" fill-rule="evenodd"/><path d="M1266 1186C1266 1166.12 1282.12 1150 1302 1150 1321.88 1150 1338 1166.12 1338 1186 1338 1205.88 1321.88 1222 1302 1222 1282.12 1222 1266 1205.88 1266 1186Z" fill="#F8BA17" fill-rule="evenodd"/><path d="M0 184C-0.0453542 146.483 143.88 109.642 199.467 92.4346 255.054 75.2271 396.532 36.8045 395.999 0" stroke="#E93725" stroke-width="20.625" stroke-miterlimit="8" fill="none" fill-rule="evenodd" transform="matrix(-1 0 0 1 1351.5 772.5)"/><rect x="1277" y="845" width="48.9998" height="116" fill="#FFFFFF"/><path d="M1302.5 735.5 1302.5 1186.3" stroke="#F8BA17" stroke-width="20.625" stroke-miterlimit="8" fill="none" fill-rule="evenodd"/><rect x="0" y="0" width="115.98" height="48.8345" fill="#FFFFFF" transform="matrix(-0.916167 0.400797 0.400797 0.916167 1345.04 967.073)"/><path d="M956.5 1157.5C956.455 1119.98 1100.02 1083.14 1155.46 1065.93 1210.91 1048.73 1352.03 1010.3 1351.5 973.5" stroke="#E93725" stroke-width="20.625" stroke-miterlimit="8" fill="none" fill-rule="evenodd"/><path d="M0 0 0.00144357 17.2341" stroke="#E93725" stroke-width="20.625" stroke-miterlimit="8" fill="none" fill-rule="evenodd" transform="matrix(-1 0 0 1 1351.5 956.5)"/><path d="M700.5 821.5 858.147 665.5 1558.5 665.5 1400.85 821.5Z" stroke="#000000" stroke-width="6.875" stroke-miterlimit="8" fill="none" fill-rule="evenodd"/></g></svg>